<svg xmlns="http://www.w3.org/2000/svg" width="100%" height="100%" preserveAspectRatio="none" viewBox="0 0 150 150" fill="rgba(13, 98, 242, 0.2)"><polygon points="132.9 150 150 132.9 150 123.6 123.6 150 132.9 150"></polygon><polygon points="16.6 0 0 16.6 0 26.1 26.1 0 16.6 0"></polygon><polygon points="150 150 150 142 142 150 150 150"></polygon><polygon points="0 0 0 7.5 7.5 0 0 0"></polygon><polygon points="114.5 150 150 114.5 150 105.4 105.4 150 114.5 150"></polygon><polygon points="77.7 150 150 77.7 150 68.9 68.9 150 77.7 150"></polygon><polygon points="53.4 0 0 53.4 0 62.7 62.7 0 53.4 0"></polygon><polygon points="145.5 0 0 145.5 0 150 4.6 150 150 4.6 150 0 145.5 0"></polygon><polygon points="71.8 0 0 71.8 0 81.1 81.1 0 71.8 0"></polygon><polygon points="96.4 150 150 96.4 150 86.8 86.8 150 96.4 150"></polygon><polygon points="41.2 150 150 41.3 150 32.1 32.1 150 41.2 150"></polygon><polygon points="23 150 150 23 150 13.7 13.7 150 23 150"></polygon><polygon points="59.5 150 150 59.5 150 50.5 50.5 150 59.5 150"></polygon><polygon points="127.1 0 0 127.1 0 136.2 136.2 0 127.1 0"></polygon><polygon points="108.4 0 0 108.4 0 117.8 117.8 0 108.4 0"></polygon><polygon points="90.4 0 0 90.4 0 99.3 99.3 0 90.4 0"></polygon><polygon points="35.2 0 0 35.2 0 44.3 44.3 0 35.2 0"></polygon></svg>